<svg width="306" height="74" viewBox="0 0 306 74" fill="none" xmlns="http://www.w3.org/2000/svg">
<path d="M0 48V0.799997H2.4V48H0ZM4.8 48V0.799997H12V48H4.8ZM14.4 48V0.799997H21.6V48H14.4ZM24 48V0.799997H26.4V48H24ZM33.6 48V0.799997H36V48H33.6ZM13.52 54.96H19.44C21.4133 54.96 22.88 55.4667 23.84 56.48C24.8533 57.44 25.36 58.6933 25.36 60.24C25.36 61.7333 24.88 62.96 23.92 63.92C22.96 64.88 21.52 65.36 19.6 65.36H15.68V73.52H13.52V54.96ZM19.36 63.52C20.6933 63.52 21.6533 63.2267 22.24 62.64C22.88 62.1067 23.2 61.3333 23.2 60.32C23.2 59.3067 22.88 58.5067 22.24 57.92C21.6 57.28 20.6667 56.96 19.44 56.96H15.68V63.52H19.36ZM38.4375 48V0.799997H45.6375V48H38.4375ZM48.0375 48V0.799997H50.4375V48H48.0375ZM52.8375 48V0.799997H60.0375V48H52.8375ZM62.4375 48V0.799997H64.8375V48H62.4375ZM72.0375 48V0.799997H74.4375V48H72.0375ZM57.6375 73.84C55.5042 73.84 53.8775 73.0133 52.7575 71.36C51.5842 69.7067 50.9975 67.36 50.9975 64.32C50.9975 61.3867 51.5842 59.0667 52.7575 57.36C53.9308 55.7067 55.5575 54.88 57.6375 54.88C59.7175 54.88 61.3442 55.7067 62.5175 57.36C63.6908 59.0667 64.2775 61.3867 64.2775 64.32C64.2775 67.36 63.6908 69.7067 62.5175 71.36C61.3975 73.0133 59.7708 73.84 57.6375 73.84ZM57.6375 72C59.0775 72 60.1708 71.36 60.9175 70.08C61.7175 68.7467 62.1175 66.8267 62.1175 64.32C62.1175 61.9733 61.7175 60.1067 60.9175 58.72C60.1175 57.3867 59.0242 56.72 57.6375 56.72C56.2508 56.72 55.1575 57.3867 54.3575 58.72C53.5575 60.1067 53.1575 61.9733 53.1575 64.32C53.1575 66.8267 53.5308 68.7467 54.2775 70.08C55.0775 71.36 56.1975 72 57.6375 72ZM76.875 48V0.799997H84.075V48H76.875ZM91.275 48V0.799997H98.475V48H91.275ZM100.875 48V0.799997H103.275V48H100.875ZM105.675 48V0.799997H108.075V48H105.675ZM110.475 48V0.799997H112.875V48H110.475ZM89.115 54.96H91.035L93.035 67.52L96.075 56.32H96.715L99.675 67.6L101.355 54.96H103.115L100.235 73.52H99.435L96.235 61.44L92.955 73.52H92.075L89.115 54.96ZM115.312 48V0.799997H122.513V48H115.312ZM124.913 48V0.799997H127.313V48H124.913ZM129.713 48V0.799997H136.913V48H129.713ZM144.113 48V0.799997H146.513V48H144.113ZM148.913 48V0.799997H151.313V48H148.913ZM128.833 54.96H140.193V56.8H130.753V62.88H138.593V64.8H130.753V71.68H140.113V73.52H128.833V54.96ZM153.75 48V0.799997H160.95V48H153.75ZM163.35 48V0.799997H165.75V48H163.35ZM168.15 48V0.799997H170.55V48H168.15ZM172.95 48V0.799997H180.15V48H172.95ZM187.35 48V0.799997H189.75V48H187.35ZM167.19 54.96H172.63C174.763 54.96 176.31 55.44 177.27 56.4C178.283 57.3067 178.79 58.6133 178.79 60.32C178.79 61.3867 178.443 62.4 177.75 63.36C177.057 64.32 176.15 64.96 175.03 65.28L179.35 73.52H177.03L172.87 65.36H169.27V73.52H167.19V54.96ZM172.87 63.52C174.15 63.52 175.11 63.2267 175.75 62.64C176.337 62.1067 176.63 61.3333 176.63 60.32C176.63 59.3067 176.337 58.48 175.75 57.84C175.11 57.2533 174.15 56.96 172.87 56.96H169.27V63.52H172.87ZM192.188 48V0.799997H194.588V48H192.188ZM201.788 48V0.799997H208.988V48H201.788ZM211.388 48V0.799997H213.788V48H211.388ZM216.188 48V0.799997H223.388V48H216.188ZM225.788 48V0.799997H228.188V48H225.788ZM230.625 48V0.799997H233.025V48H230.625ZM235.425 48V0.799997H242.625V48H235.425ZM245.025 48V0.799997H247.425V48H245.025ZM254.625 48V0.799997H257.025V48H254.625ZM259.425 48V0.799997H266.625V48H259.425ZM243.825 54.96H249.105C251.132 54.96 252.652 55.36 253.665 56.16C254.732 56.96 255.265 58.08 255.265 59.52C255.265 60.4267 255.025 61.2533 254.545 62C254.012 62.7467 253.318 63.28 252.465 63.6C253.532 63.9733 254.385 64.5867 255.025 65.44C255.665 66.3467 255.985 67.3067 255.985 68.32C255.985 69.92 255.398 71.2 254.225 72.16C253.105 73.0667 251.372 73.52 249.025 73.52H243.825V54.96ZM248.785 62.64C251.718 62.64 253.185 61.6533 253.185 59.68C253.185 58.8267 252.838 58.1333 252.145 57.6C251.505 57.0133 250.492 56.72 249.105 56.72H245.825V62.64H248.785ZM249.425 71.68C252.305 71.68 253.745 70.5067 253.745 68.16C253.745 65.6533 252.118 64.4 248.865 64.4H245.825V71.68H249.425ZM269.062 48V0.799997H271.463V48H269.062ZM273.863 48V0.799997H281.063V48H273.863ZM283.463 48V0.799997H285.863V48H283.463ZM293.063 48V0.799997H300.263V48H293.063ZM302.663 48V0.799997H305.063V48H302.663ZM283.223 71.76H286.903V56.72H283.463V54.96H292.663V56.72H288.983V71.76H292.823V73.52H283.223V71.76Z" fill="#16A34A"/>
</svg>
